<svg xmlns="http://www.w3.org/2000/svg" width="50" height="50" viewBox="0 0 50 50" fill="none">
  <path d="M25 46.6345L10.8812 36.046C10.4139 35.704 10.046 35.2646 9.7776 34.7278C9.5092 34.191 9.375 33.626 9.375 33.033V8.97464C9.375 7.92221 9.73958 7.03141 10.4688 6.30225C11.1979 5.57308 12.0887 5.2085 13.1411 5.2085H36.8589C37.9113 5.2085 38.8021 5.57308 39.5312 6.30225C40.2604 7.03141 40.625 7.92221 40.625 8.97464V33.033C40.625 33.626 40.4908 34.191 40.2224 34.7278C39.954 35.2646 39.5861 35.704 39.1187 36.046L25 46.6345ZM25 42.7085L37.2396 33.534C37.3198 33.467 37.3832 33.3901 37.4297 33.3033C37.4766 33.2165 37.5 33.1198 37.5 33.0132V8.97464C37.5 8.81423 37.4332 8.66735 37.2995 8.53402C37.1661 8.40034 37.0193 8.3335 36.8589 8.3335H13.1411C12.9807 8.3335 12.8339 8.40034 12.7005 8.53402C12.5668 8.66735 12.5 8.81423 12.5 8.97464V33.0132C12.5 33.1198 12.5234 33.2165 12.5703 33.3033C12.6168 33.3901 12.6802 33.467 12.7604 33.534L25 42.7085ZM22.8125 30.5288L33.862 19.4793L31.6667 17.22L22.8125 26.0741L18.3974 21.659L16.138 23.8543L22.8125 30.5288ZM25 8.3335H12.5H37.5H25Z" fill="white"/>
</svg>