<svg xmlns="http://www.w3.org/2000/svg" width="50" height="50" viewBox="0 0 50 50" fill="none">
  <path d="M6.89115 43.9498C5.83872 43.9498 4.94792 43.5852 4.21875 42.8561C3.48958 42.1269 3.125 41.2363 3.125 40.1842V19.1905H6.25V40.1842C6.25 40.3443 6.31684 40.4912 6.45052 40.6248C6.58385 40.7582 6.73073 40.8248 6.89115 40.8248H40.1042V43.9498H6.89115ZM14.1828 36.6582C13.1304 36.6582 12.2396 36.2938 11.5104 35.5649C10.7812 34.8358 10.4167 33.945 10.4167 32.8925V11.6587H21.1536V7.93265C21.1536 6.88022 21.5182 5.98942 22.2474 5.26025C22.9766 4.53109 23.8674 4.1665 24.9198 4.1665H32.3719C33.424 4.1665 34.3146 4.53109 35.0438 5.26025C35.7729 5.98942 36.1375 6.88022 36.1375 7.93265V11.6587H46.875V32.8925C46.875 33.945 46.5104 34.8358 45.7812 35.5649C45.0521 36.2938 44.1613 36.6582 43.1089 36.6582H14.1828ZM14.1828 33.5337H43.1089C43.2693 33.5337 43.4161 33.4668 43.5495 33.3332C43.6832 33.1995 43.75 33.0526 43.75 32.8925V14.7837H13.5417V32.8925C13.5417 33.0526 13.6083 33.1995 13.7417 33.3332C13.8753 33.4668 14.0224 33.5337 14.1828 33.5337ZM24.2786 11.6587H33.013V7.93265C33.013 7.77223 32.9462 7.62536 32.8125 7.49202C32.6788 7.35834 32.5319 7.2915 32.3719 7.2915H24.9198C24.7597 7.2915 24.6128 7.35834 24.4792 7.49202C24.3455 7.62536 24.2786 7.77223 24.2786 7.93265V11.6587Z" fill="white"/>
</svg>