<svg xmlns="http://www.w3.org/2000/svg" width="50" height="50" viewBox="0 0 50 50" fill="none">
  <path d="M8.85889 41.6668C7.41341 41.6668 6.1832 41.1604 5.16827 40.1476C4.15334 39.1351 3.64587 37.9054 3.64587 36.4585C3.64587 35.2113 4.0431 34.1095 4.83754 33.1533C5.63233 32.197 6.624 31.604 7.81254 31.3741V18.6262C6.624 18.3963 5.63233 17.8033 4.83754 16.847C4.0431 15.8908 3.64587 14.7891 3.64587 13.5418C3.64587 12.095 4.15178 10.8653 5.16358 9.85277C6.17539 8.83992 7.40403 8.3335 8.84952 8.3335C10.295 8.3335 11.5252 8.83992 12.5401 9.85277C13.5551 10.8653 14.0625 12.095 14.0625 13.5418C14.0625 14.7891 13.6653 15.8908 12.8709 16.847C12.0761 17.8033 11.0844 18.3963 9.89587 18.6262V23.9585H23.9584V18.6262C22.7698 18.3963 21.7782 17.8033 20.9834 16.847C20.1889 15.8908 19.7917 14.7891 19.7917 13.5418C19.7917 12.095 20.2976 10.8653 21.3094 9.85277C22.3212 8.83992 23.5499 8.3335 24.9954 8.3335C26.4408 8.3335 27.671 8.83992 28.686 9.85277C29.7009 10.8653 30.2084 12.095 30.2084 13.5418C30.2084 14.7891 29.8112 15.8908 29.0167 16.847C28.2219 17.8033 27.2302 18.3963 26.0417 18.6262V23.9585H37.0193C37.8766 23.9585 38.6118 23.6521 39.225 23.0392C39.8379 22.426 40.1443 21.6908 40.1443 20.8335V18.6262C38.9558 18.3963 37.9641 17.8033 37.1693 16.847C36.3749 15.8908 35.9776 14.7891 35.9776 13.5418C35.9776 12.095 36.4835 10.8653 37.4953 9.85277C38.5072 8.83992 39.7358 8.3335 41.1813 8.3335C42.6268 8.3335 43.857 8.83992 44.8719 9.85277C45.8868 10.8653 46.3943 12.095 46.3943 13.5418C46.3943 14.7891 45.9969 15.8908 45.2021 16.847C44.4077 17.8033 43.4162 18.3963 42.2276 18.6262V20.8335C42.2276 22.2804 41.7212 23.5101 40.7084 24.5226C39.6959 25.5354 38.4662 26.0418 37.0193 26.0418H26.0417V31.3741C27.2302 31.604 28.2219 32.197 29.0167 33.1533C29.8112 34.1095 30.2084 35.2113 30.2084 36.4585C30.2084 37.9054 29.7025 39.1351 28.6907 40.1476C27.6789 41.1604 26.4502 41.6668 25.0047 41.6668C23.5592 41.6668 22.329 41.1604 21.3141 40.1476C20.2992 39.1351 19.7917 37.9054 19.7917 36.4585C19.7917 35.2113 20.1889 34.1095 20.9834 33.1533C21.7782 32.197 22.7698 31.604 23.9584 31.3741V26.0418H9.89587V31.3741C11.0844 31.604 12.0761 32.197 12.8709 33.1533C13.6653 34.1095 14.0625 35.2113 14.0625 36.4585C14.0625 37.9054 13.5566 39.1351 12.5448 40.1476C11.533 41.1604 10.3044 41.6668 8.85889 41.6668ZM8.85421 39.5835C9.7115 39.5835 10.4467 39.2771 11.0599 38.6642C11.6728 38.051 11.9792 37.3158 11.9792 36.4585C11.9792 35.6012 11.6728 34.866 11.0599 34.2528C10.4467 33.6399 9.7115 33.3335 8.85421 33.3335C7.99692 33.3335 7.26167 33.6399 6.64848 34.2528C6.03563 34.866 5.72921 35.6012 5.72921 36.4585C5.72921 37.3158 6.03563 38.051 6.64848 38.6642C7.26167 39.2771 7.99692 39.5835 8.85421 39.5835ZM8.85421 16.6668C9.7115 16.6668 10.4467 16.3604 11.0599 15.7476C11.6728 15.1344 11.9792 14.3991 11.9792 13.5418C11.9792 12.6845 11.6728 11.9493 11.0599 11.3361C10.4467 10.7233 9.7115 10.4168 8.85421 10.4168C7.99692 10.4168 7.26167 10.7233 6.64848 11.3361C6.03563 11.9493 5.72921 12.6845 5.72921 13.5418C5.72921 14.3991 6.03563 15.1344 6.64848 15.7476C7.26167 16.3604 7.99692 16.6668 8.85421 16.6668ZM25 39.5835C25.8573 39.5835 26.5926 39.2771 27.2058 38.6642C27.8186 38.051 28.125 37.3158 28.125 36.4585C28.125 35.6012 27.8186 34.866 27.2058 34.2528C26.5926 33.6399 25.8573 33.3335 25 33.3335C24.1427 33.3335 23.4075 33.6399 22.7943 34.2528C22.1815 34.866 21.875 35.6012 21.875 36.4585C21.875 37.3158 22.1815 38.051 22.7943 38.6642C23.4075 39.2771 24.1427 39.5835 25 39.5835ZM25 16.6668C25.8573 16.6668 26.5926 16.3604 27.2058 15.7476C27.8186 15.1344 28.125 14.3991 28.125 13.5418C28.125 12.6845 27.8186 11.9493 27.2058 11.3361C26.5926 10.7233 25.8573 10.4168 25 10.4168C24.1427 10.4168 23.4075 10.7233 22.7943 11.3361C22.1815 11.9493 21.875 12.6845 21.875 13.5418C21.875 14.3991 22.1815 15.1344 22.7943 15.7476C23.4075 16.3604 24.1427 16.6668 25 16.6668ZM41.186 16.6668C42.0433 16.6668 42.7785 16.3604 43.3917 15.7476C44.0046 15.1344 44.311 14.3991 44.311 13.5418C44.311 12.6845 44.0046 11.9493 43.3917 11.3361C42.7785 10.7233 42.0433 10.4168 41.186 10.4168C40.3287 10.4168 39.5934 10.7233 38.9802 11.3361C38.3674 11.9493 38.061 12.6845 38.061 13.5418C38.061 14.3991 38.3674 15.1344 38.9802 15.7476C39.5934 16.3604 40.3287 16.6668 41.186 16.6668Z" fill="white"/>
</svg>