<svg xmlns="http://www.w3.org/2000/svg" width="50" height="50" viewBox="0 0 50 50" fill="none">
  <path d="M23.5256 39.183H26.3704V36.659C27.9863 36.4399 29.4493 35.8328 30.7594 34.8377C32.0695 33.8429 32.7245 32.3345 32.7245 30.3127C32.7245 28.8543 32.2945 27.5642 31.4344 26.4424C30.5743 25.3208 28.8943 24.3087 26.3943 23.4059C24.204 22.658 22.7497 22.0102 22.0313 21.4627C21.3129 20.9151 20.9537 20.1498 20.9537 19.1668C20.9537 18.1838 21.3216 17.3852 22.0573 16.771C22.7931 16.1568 23.8087 15.8496 25.1042 15.8496C26.1886 15.8496 27.0632 16.1054 27.7282 16.6168C28.3934 17.1283 28.9051 17.77 29.2631 18.5418L31.8349 17.508C31.3995 16.3996 30.6898 15.4509 29.7058 14.6616C28.7214 13.8724 27.6443 13.4323 26.4745 13.3413V10.8174H23.6297V13.3413C21.8537 13.6833 20.4896 14.4038 19.5375 15.5028C18.5851 16.6021 18.1089 17.8234 18.1089 19.1668C18.1089 20.7321 18.583 21.9915 19.5313 22.945C20.4796 23.8984 22.0247 24.7597 24.1667 25.5288C26.3809 26.341 27.8934 27.0696 28.7042 27.7147C29.5146 28.3595 29.9198 29.2255 29.9198 30.3127C29.9198 31.6189 29.4485 32.5677 28.5058 33.159C27.5627 33.7507 26.4983 34.0465 25.3125 34.0465C24.14 34.0465 23.091 33.6941 22.1657 32.9892C21.24 32.284 20.5287 31.2529 20.0318 29.896L17.3959 30.97C17.9355 32.5161 18.7106 33.7446 19.7214 34.6554C20.7325 35.5661 22.0006 36.1993 23.5256 36.5548V39.183ZM25 44.7918C22.265 44.7918 19.6936 44.2717 17.286 43.2314C14.878 42.1911 12.7832 40.7802 11.0016 38.9986C9.22001 37.217 7.80907 35.1222 6.76879 32.7142C5.72851 30.3066 5.20837 27.7352 5.20837 25.0002C5.20837 22.2651 5.72851 19.6937 6.76879 17.2861C7.80907 14.8781 9.22001 12.7833 11.0016 11.0017C12.7832 9.22013 14.878 7.80919 17.286 6.76891C19.6936 5.72864 22.265 5.2085 25 5.2085C27.7351 5.2085 30.3065 5.72864 32.7141 6.76891C35.1221 7.80919 37.2169 9.22013 38.9985 11.0017C40.7801 12.7833 42.191 14.8781 43.2313 17.2861C44.2716 19.6937 44.7917 22.2651 44.7917 25.0002C44.7917 27.7352 44.2716 30.3066 43.2313 32.7142C42.191 35.1222 40.7801 37.217 38.9985 38.9986C37.2169 40.7802 35.1221 42.1911 32.7141 43.2314C30.3065 44.2717 27.7351 44.7918 25 44.7918ZM25 41.6668C29.6528 41.6668 33.5938 40.0522 36.823 36.8231C40.0521 33.5939 41.6667 29.6529 41.6667 25.0002C41.6667 20.3474 40.0521 16.4064 36.823 13.1772C33.5938 9.94808 29.6528 8.3335 25 8.3335C20.3473 8.3335 16.4063 9.94808 13.1771 13.1772C9.94796 16.4064 8.33337 20.3474 8.33337 25.0002C8.33337 29.6529 9.94796 33.5939 13.1771 36.8231C16.4063 40.0522 20.3473 41.6668 25 41.6668Z" fill="white"/>
</svg>