<svg width="186" height="73" viewBox="0 0 186 73" fill="none" xmlns="http://www.w3.org/2000/svg">
<path fill-rule="evenodd" clip-rule="evenodd" d="M104.232 0.748783C95.84 1.69528 90.1805 8.76507 90.1805 18.3018C90.1805 22.4545 91.2177 26.0773 93.307 29.222C94.0831 30.3902 96.0005 32.2866 97.2192 33.0913C100.918 35.5335 105.759 36.3187 110.315 35.2154C116.614 33.6904 120.844 28.6451 121.846 21.4657C122.076 19.8176 122.078 16.9488 121.851 15.2181C120.965 8.45598 117.127 3.41183 111.372 1.44566C109.506 0.807909 106.397 0.504549 104.232 0.748783ZM0.690439 1.16876C0.558839 1.30024 0.602627 22.2032 0.737741 23.7426C1.07131 27.5459 2.4002 30.5276 4.78973 32.8341C7.11535 35.079 10.1492 36.2223 13.7841 36.2238C17.6872 36.2253 20.8927 34.9953 23.3897 32.5381C25.3059 30.6524 26.3604 28.7061 27.1067 25.678C27.3459 24.7072 27.353 24.3936 27.3929 12.8867L27.4337 1.09066H26.4337H25.4339L25.4329 11.833C25.4323 18.2914 25.3847 22.9955 25.3136 23.6291C24.9618 26.7613 23.8493 29.1853 21.8744 31.1223C19.64 33.3141 16.7423 34.2959 13.4205 33.9864C7.84816 33.4673 4.49375 30.0489 3.7772 24.159C3.70215 23.5424 3.65649 18.9887 3.65649 12.1287V1.09066H2.21251C1.41822 1.09066 0.733292 1.12579 0.690439 1.16876ZM33.6296 18.1186V35.1617H35.1517H36.6738V28.2538V21.3459H41.186C43.6678 21.3459 46.2035 21.2896 46.8209 21.2208C52.2214 20.6186 56.1368 16.9675 56.5601 12.1389C56.727 10.2362 56.4442 8.66239 55.6378 7.00333C54.2535 4.15589 51.6459 2.16513 48.265 1.37447C47.4943 1.19417 46.5444 1.16337 40.5082 1.12228L33.6296 1.07556V18.1186ZM61.9038 1.22882C61.8713 1.31382 61.8585 8.97032 61.875 18.2433L61.9051 35.1032L63.3979 35.1359L64.8907 35.1687V28.2558V21.343L69.0705 21.3737L73.2503 21.4045L78.3301 28.2831L83.41 35.1617H85.2147C86.2072 35.1617 87.0193 35.1352 87.0193 35.1029C87.0193 35.0705 84.7488 31.9273 81.9738 28.1178C79.1989 24.3084 76.9014 21.1209 76.8682 21.0345C76.8333 20.9435 76.8869 20.8776 76.9957 20.8776C77.2899 20.8776 78.5774 20.4117 79.3504 20.0257C83.0574 18.1738 85.2428 14.534 84.9899 10.6329C84.6958 6.09747 81.4659 2.50678 76.6521 1.36335C75.9565 1.19815 74.8272 1.16302 68.9003 1.12216C63.2273 1.08294 61.9519 1.10237 61.9038 1.22882ZM103.938 3.07205C99.0226 4.09313 95.6305 7.20144 94.0586 12.1246C93.5243 13.7985 93.3238 15.0809 93.2561 17.2589C92.9616 26.726 97.7814 33.1305 105.47 33.4891C111.437 33.7671 116.134 30.4671 118.089 24.6243C119.108 21.5751 119.317 17.4569 118.625 14.0508C117.504 8.53571 114.073 4.42752 109.558 3.19194C108.214 2.82442 105.417 2.76471 103.938 3.07205ZM36.6738 11.2361V19.1571L41.5034 19.0726C46.6158 18.9831 47.2817 18.9177 48.6353 18.3709C51.7613 17.1083 53.5337 14.499 53.5337 11.1598C53.5337 8.90464 52.8225 7.16819 51.252 5.58851C50.5136 4.84585 50.0969 4.53652 49.3173 4.15214C47.7035 3.35668 47.3644 3.31956 41.6791 3.31722L36.6738 3.31523V11.2361ZM64.8907 11.2354V19.1557L70.013 19.0726C73.5204 19.0155 75.3753 18.9401 75.8964 18.8331C78.6378 18.2705 80.8635 16.1366 81.6452 13.3217C81.9695 12.1536 81.9981 10.3024 81.7092 9.16936C81.1506 6.97816 79.6645 5.08693 77.7658 4.15097C76.1502 3.35446 75.8258 3.31956 70.013 3.31722L64.8907 3.31523V11.2354ZM40.8888 37.9245C36.6946 38.4202 33.4343 39.9596 30.9239 42.6295C28.8984 44.7834 27.5583 47.5056 26.8191 50.9678C26.589 52.045 26.5562 52.5452 26.5542 55.0072C26.5521 57.4825 26.5829 57.9586 26.8123 59.0053C28.0791 64.7866 31.657 69.3528 36.5917 71.4861C41.3242 73.5318 47.5628 72.8709 52.1823 69.8345C53.2504 69.1324 54.9768 67.4099 55.6762 66.3485L56.2266 65.5131V59.8212V54.1291H49.4358H42.645V55.1828V56.2366H47.9137H53.1824L53.175 61.3004L53.1678 66.3642L52.3515 67.0667C48.7976 70.1252 44.3179 71.1969 39.8527 70.0569C35.0189 68.8226 31.2282 64.681 29.9401 59.2267C29.1645 55.9423 29.3787 51.6953 30.4791 48.5456C32.2724 43.4118 36.4555 40.4578 42.4147 40.1169C46.0428 39.9093 49.802 41.5236 52.0785 44.2669C52.9655 45.3356 53.8433 47.1488 54.0826 48.4058C54.1852 48.9456 54.2865 49.4531 54.3076 49.5336C54.3342 49.6353 54.6325 49.6799 55.2863 49.6799H56.2266L56.224 49.1238C56.2226 48.8179 56.1204 48.1106 55.9969 47.5518C54.9828 42.9661 51.0179 39.3451 45.7477 38.1913C44.7266 37.9679 41.8559 37.8102 40.8888 37.9245ZM103.435 37.9835C98.8934 38.5984 95.1868 40.8978 92.6891 44.6498C91.1331 46.9871 90.198 49.6722 89.818 52.8937C89.619 54.5822 89.7399 57.9646 90.0561 59.5499C91.1155 64.862 94.0005 68.8665 98.3228 71.0248C99.6177 71.6713 101.237 72.1929 102.735 72.4458C104.046 72.6671 106.77 72.7018 108.083 72.5137C115.388 71.4681 120.261 66.0617 121.219 57.9402C121.39 56.4833 121.293 52.8963 121.045 51.5703C120.209 47.0882 118.248 43.5365 115.315 41.1888C113.371 39.6327 111.493 38.747 108.972 38.1971C107.723 37.9244 104.725 37.8088 103.435 37.9835ZM61.6124 55.2449V72.1668L63.1052 72.134L64.598 72.1012L64.6282 65.2226L64.6584 58.344L68.7261 58.3472L72.7937 58.3504L77.8848 65.2551L82.9758 72.1598H84.7635C85.7466 72.1598 86.5509 72.1312 86.5509 72.0963C86.5509 72.0614 84.2621 68.8888 81.4647 65.0461L76.3783 58.0592L77.357 57.7401C81.1917 56.4904 83.7723 53.6194 84.4375 49.8633C84.9505 46.9664 83.9146 43.7767 81.7512 41.592C80.4684 40.2966 79.2967 39.5683 77.5095 38.9558C75.8384 38.383 74.9581 38.3243 68.0226 38.3236L61.6124 38.3229V55.2449ZM104.991 40.0371C98.7573 40.6268 94.4036 44.611 93.1068 50.913C92.2544 55.0557 92.7808 60.0244 94.4423 63.5203C96.5163 67.884 100.649 70.5185 105.422 70.5203C111.154 70.5224 115.499 67.3127 117.391 61.6797C118.144 59.4397 118.488 56.3874 118.281 53.7838C117.808 47.8248 115.121 43.2507 110.848 41.1343C109.252 40.3434 106.736 39.8722 104.991 40.0371ZM64.6565 48.3899V56.2322L69.6618 56.1637C75.2971 56.0865 75.7801 56.032 77.2487 55.3081C81.0112 53.4533 82.5585 48.7627 80.7106 44.8137C79.7741 42.8125 77.9718 41.3274 75.8079 40.774C74.9984 40.5669 74.4811 40.5475 69.7894 40.5475H64.6565V48.3899Z" fill="white"/>
<mask id="mask0_41_1366" style="mask-type:alpha" maskUnits="userSpaceOnUse" x="124" y="38" width="62" height="35">
<path fill-rule="evenodd" clip-rule="evenodd" d="M124.018 49.1628C124.019 60.6536 124.029 60.8895 124.659 63.0521C126.078 67.9268 130.291 71.4104 136.018 72.4433C137.47 72.7052 141.185 72.7439 142.516 72.511C144.666 72.1348 146.586 71.4728 148.078 70.594C151.598 68.5197 153.583 65.8175 154.475 61.8889C154.737 60.7327 154.739 60.6491 154.779 49.6312L154.82 38.5376H149.605H144.39L144.388 48.8116C144.386 60.0947 144.394 59.958 143.68 61.2052C143.01 62.3768 141.945 63.0294 140.315 63.267C137.471 63.6814 135.126 62.2775 134.559 59.8222C134.487 59.5113 134.442 55.3581 134.44 48.9287L134.438 38.5376H129.227H124.017L124.018 49.1628ZM157.941 38.8407C157.893 38.8886 157.854 46.427 157.854 55.5927V72.2574H163.064H168.274V66.4751V60.693L171.875 60.6363C175.83 60.5741 176.771 60.4619 178.636 59.8307C182.358 58.5708 185.057 55.664 185.85 52.0606C186.05 51.1518 186.05 48.4024 185.85 47.4944C185.383 45.3764 184.444 43.7008 182.892 42.2181C181.596 40.9796 180.275 40.1929 178.485 39.5933C176.333 38.8721 176.081 38.8554 166.635 38.8021C161.901 38.7754 157.989 38.7928 157.941 38.8407ZM168.274 50.1873V53.2003L170.587 53.1435C172.336 53.1006 173.029 53.0394 173.433 52.8924C175.5 52.1392 176.097 49.5352 174.521 48.1475C173.673 47.4007 173.222 47.2958 170.587 47.2311L168.274 47.1743V50.1873Z" fill="black"/>
</mask>
<g mask="url(#mask0_41_1366)">
<path d="M121.595 36.3823L153.028 72.8854L170.87 74.082L182.306 63.0065L161.171 38.3986L121.595 36.3823Z" fill="#F13D55"/>
<path d="M155.483 75.0309L131.833 47.9165L129.182 53.9473L117.763 73.3636L155.483 75.0309Z" fill="#E65E41"/>
<path d="M135.081 51.6588L123.798 38.2803L121.219 43.889L123.249 64.9726L135.081 51.6588Z" fill="#C02233"/>
<path d="M158.669 35.7522L171.047 50.4204L184.14 48.9236L207.482 25.6455H174.122L164.434 37.0916L158.669 35.7522Z" fill="#E6A24B"/>
<path d="M172.188 51.3902L194.64 77.3066L197.292 71.2759L184.895 37.6903L175.207 49.1364L172.188 51.3902Z" fill="#CE2425"/>
</g>
</svg>
