<svg xmlns="http://www.w3.org/2000/svg" width="59" height="75" viewBox="0 0 59 75" fill="none">
  <path d="M57.7283 31.9997C50.4298 32.7267 35.2276 19.999 34.2283 1.49981C34.1505 0.0596025 57.2283 10 57.7283 31.9997Z" stroke="black"/>
  <path d="M24.2285 72.6364C16.93 73.3634 1.72783 60.6357 0.728516 42.1365C0.650717 40.6963 23.7285 50.6367 24.2285 72.6364Z" stroke="black"/>
  <path d="M57.5242 37.7625C58.9346 51.2381 54.1178 60.5192 47.7449 66.323C41.4941 72.0154 33.7559 74.3563 28.8855 74.0359C28.0729 59.9949 35.2255 50.5268 42.6804 44.7771C46.448 41.8713 50.2827 39.9243 53.1804 38.8298C54.6316 38.2817 55.8329 37.953 56.6628 37.821C57.0638 37.7573 57.3489 37.7453 57.5242 37.7625Z" stroke="black"/>
  <path d="M28.8453 1.51025C30.211 14.8525 25.3974 23.5704 19.1715 29.064C13.1266 34.3977 5.72751 36.7089 1.29065 37.2065C0.505398 23.209 7.38387 13.8912 14.5514 8.28076C18.1825 5.43847 21.8806 3.55443 24.6744 2.50732C26.0733 1.98305 27.23 1.67466 28.028 1.55615C28.4091 1.49957 28.6795 1.49185 28.8453 1.51025Z" stroke="black"/>
  <path d="M29.4149 1C29.4149 1 29.4627 16.8382 35.3231 24.7559C41.3605 32.9126 57.8231 37.7559 57.8231 37.7559M28.5 74.5C28.5 74.5 27.5817 57.9421 20.8231 49.8779C14.8024 42.6941 0.82312 37.7559 0.82312 37.7559" stroke="black"/>
  <path d="M34.1161 38.2559L28.8231 43.5488L23.5302 38.2559L28.8231 32.9629L34.1161 38.2559Z" stroke="black"/>
</svg>