<svg width="416" height="265" viewBox="0 0 416 265" fill="none" xmlns="http://www.w3.org/2000/svg">
<path d="M17.284 264.258C13.6109 264.381 9.98281 263.421 6.8508 261.498C4.08329 259.715 1.9875 257.062 0.893799 253.956L7.92779 249.832C8.58869 251.811 9.89095 253.514 11.6284 254.67C13.3658 255.825 15.439 256.368 17.5195 256.212C19.2915 256.34 21.0587 255.904 22.5678 254.966C23.0985 254.58 23.5243 254.067 23.8063 253.474C24.0883 252.881 24.2175 252.226 24.1824 251.571C24.1473 250.915 23.9489 250.278 23.6052 249.719C23.2615 249.159 22.7834 248.695 22.2144 248.367C19.9844 247.207 17.6227 246.319 15.1805 245.724C13.568 245.254 11.9837 244.692 10.4351 244.041C9.07033 243.432 7.77309 242.681 6.5647 241.802C5.29506 240.89 4.28102 239.667 3.61987 238.25C2.91034 236.663 2.56537 234.937 2.61025 233.2C2.54078 231.485 2.8675 229.777 3.56502 228.21C4.26255 226.642 5.31206 225.256 6.63203 224.16C9.34524 221.906 12.7821 220.71 16.3079 220.793C19.4535 220.728 22.549 221.588 25.2098 223.268C27.8136 224.954 29.8898 227.34 31.2004 230.153L24.3011 234.142C23.6753 232.54 22.5737 231.168 21.1446 230.211C19.7155 229.253 18.0275 228.757 16.3079 228.789C14.8743 228.707 13.4556 229.117 12.2861 229.951C11.8195 230.3 11.4431 230.755 11.1885 231.28C10.9338 231.804 10.8082 232.381 10.8221 232.964C10.8168 233.592 10.9678 234.212 11.2616 234.768C11.5553 235.323 11.9826 235.797 12.5049 236.146C14.4549 237.337 16.5699 238.233 18.7816 238.806L21.6759 239.715C22.3322 239.95 23.2241 240.287 24.3515 240.741C25.2668 241.08 26.1462 241.508 26.9766 242.021C27.7238 242.529 28.4325 243.092 29.0969 243.704C29.8088 244.3 30.4221 245.004 30.9143 245.792C31.3733 246.611 31.7348 247.481 31.9913 248.384C32.2928 249.481 32.4401 250.614 32.4288 251.751C32.4981 253.502 32.1549 255.244 31.4271 256.838C30.6992 258.431 29.607 259.832 28.2387 260.925C25.0889 263.283 21.2128 264.463 17.284 264.258Z" fill="white"/>
<path d="M63.9467 263.435L61.4394 255.91H44.8137L42.3064 263.435H33.4214L48.0278 221.703H58.2253L72.8822 263.435H63.9467ZM47.4388 248.284H58.8648L53.1602 231.231L47.4388 248.284Z" fill="white"/>
<path d="M117.745 221.703V263.435H109.583V236.366L97.8039 255.741H96.8616L85.0822 236.416V263.435H76.8535V221.703H85.2673L97.2486 241.433L109.163 221.703H117.745Z" fill="white"/>
<path d="M141.001 264.259C136.828 264.426 132.745 263.02 129.558 260.32C128.075 259.007 126.904 257.38 126.13 255.557C125.355 253.734 124.997 251.761 125.082 249.782V221.703H133.243V249.126C133.196 250.072 133.338 251.018 133.662 251.909C133.985 252.799 134.484 253.616 135.128 254.311C136.844 255.544 138.904 256.207 141.017 256.207C143.131 256.207 145.191 255.544 146.907 254.311C147.548 253.614 148.043 252.797 148.364 251.907C148.685 251.016 148.825 250.071 148.775 249.126V221.703H157.004V249.782C157.088 251.761 156.73 253.734 155.956 255.557C155.181 257.38 154.01 259.007 152.528 260.32C149.312 263.027 145.2 264.432 141.001 264.259Z" fill="white"/>
<path d="M187.293 263.435L178.879 248.941H172.636V263.435H164.408V221.703H181.084C182.904 221.697 184.708 222.049 186.391 222.74C188.075 223.431 189.607 224.448 190.897 225.731C192.188 227.015 193.214 228.54 193.915 230.221C194.616 231.901 194.979 233.703 194.984 235.524C194.989 238.087 194.221 240.593 192.779 242.712C191.343 244.915 189.313 246.666 186.923 247.762L196.161 263.502L187.293 263.435ZM172.636 229.396V241.736H181.05C181.81 241.741 182.561 241.582 183.253 241.268C183.944 240.954 184.559 240.493 185.055 239.918C186.164 238.727 186.767 237.151 186.738 235.524C186.769 233.911 186.164 232.351 185.055 231.181C184.555 230.613 183.938 230.16 183.247 229.852C182.556 229.544 181.807 229.389 181.05 229.396H172.636Z" fill="white"/>
<path d="M256.657 243.571V245.725C256.702 248.173 256.231 250.604 255.274 252.857C254.317 255.111 252.896 257.138 251.104 258.805C249.107 260.63 246.769 262.041 244.225 262.957C241.68 263.873 238.98 264.275 236.279 264.142C233.446 264.142 230.64 263.583 228.023 262.499C225.406 261.414 223.027 259.825 221.024 257.821C219.021 255.817 217.432 253.438 216.348 250.819C215.264 248.201 214.706 245.395 214.706 242.56C214.706 239.726 215.264 236.92 216.348 234.302C217.432 231.683 219.021 229.304 221.024 227.3C223.027 225.296 225.406 223.707 228.023 222.622C230.64 221.538 233.446 220.979 236.279 220.979C240.001 220.947 243.663 221.918 246.88 223.791C249.992 225.551 252.568 228.122 254.335 231.231L250.633 233.386C249.316 230.837 247.288 228.725 244.793 227.309C242.213 225.795 239.27 225.01 236.279 225.036C233.527 225.142 230.84 225.895 228.433 227.233C226.027 228.571 223.969 230.457 222.427 232.739C220.885 235.02 219.901 237.633 219.556 240.366C219.211 243.098 219.514 245.874 220.441 248.467C221.367 251.061 222.891 253.4 224.89 255.295C226.888 257.19 229.304 258.587 231.942 259.374C234.581 260.161 237.367 260.315 240.076 259.825C242.786 259.334 245.341 258.212 247.536 256.549C248.897 255.435 250.024 254.063 250.853 252.512C251.682 250.96 252.196 249.26 252.366 247.51H235.791V243.571H256.657Z" fill="white"/>
<path d="M289.42 263.435L279.66 246.735H267.965V263.435H263.842V221.703H280.518C282.847 221.696 285.132 222.341 287.114 223.564C289.096 224.788 290.696 226.541 291.734 228.627C292.772 230.712 293.206 233.047 292.988 235.366C292.769 237.686 291.907 239.898 290.497 241.752C288.891 243.905 286.62 245.467 284.035 246.197L294.132 263.435H289.42ZM267.965 225.625V242.796H280.485C281.591 242.811 282.688 242.594 283.705 242.159C284.722 241.724 285.637 241.081 286.391 240.271C287.956 238.638 288.829 236.464 288.829 234.202C288.829 231.941 287.956 229.767 286.391 228.134C285.634 227.329 284.718 226.691 283.701 226.259C282.685 225.828 281.589 225.612 280.485 225.625H267.965Z" fill="white"/>
<path d="M334.653 257.845C331.113 261.441 326.435 263.695 321.418 264.224C316.401 264.752 311.356 263.522 307.145 260.742C302.934 257.963 299.819 253.807 298.331 248.984C296.844 244.162 297.076 238.972 298.988 234.302C300.901 229.632 304.375 225.771 308.817 223.379C313.26 220.988 318.394 220.213 323.344 221.188C328.294 222.163 332.752 224.827 335.956 228.725C339.161 232.623 340.913 237.513 340.913 242.559C340.973 245.401 340.448 248.224 339.371 250.853C338.294 253.483 336.688 255.862 334.653 257.845ZM306.938 254.983C310.237 258.249 314.69 260.081 319.332 260.081C323.973 260.081 328.426 258.249 331.725 254.983C334.941 251.648 336.739 247.194 336.739 242.559C336.739 237.925 334.941 233.471 331.725 230.136C328.426 226.87 323.973 225.038 319.332 225.038C314.69 225.038 310.237 226.87 306.938 230.136C303.729 233.475 301.937 237.928 301.937 242.559C301.937 247.191 303.729 251.643 306.938 254.983Z" fill="white"/>
<path d="M373.862 260.085C370.719 262.707 366.756 264.143 362.663 264.143C358.57 264.143 354.607 262.707 351.464 260.085C350.022 258.685 348.894 256.994 348.154 255.125C347.414 253.256 347.08 251.251 347.173 249.243V221.703H351.346V249.243C351.271 250.699 351.497 252.154 352.01 253.518C352.522 254.882 353.31 256.126 354.325 257.172C356.7 259.047 359.637 260.066 362.663 260.066C365.688 260.066 368.626 259.047 371.001 257.172C372.015 256.126 372.803 254.882 373.316 253.518C373.828 252.154 374.054 250.699 373.979 249.243V221.703H378.153V249.243C378.246 251.251 377.911 253.256 377.172 255.125C376.432 256.994 375.304 258.685 373.862 260.085Z" fill="white"/>
<path d="M401.997 221.703C403.719 221.703 405.424 222.042 407.014 222.701C408.604 223.36 410.049 224.326 411.267 225.544C412.484 226.762 413.45 228.207 414.108 229.798C414.767 231.389 415.106 233.095 415.106 234.817C415.106 236.539 414.767 238.244 414.108 239.835C413.45 241.426 412.484 242.872 411.267 244.09C410.049 245.307 408.604 246.273 407.014 246.932C405.424 247.591 403.719 247.93 401.997 247.93H391.261V263.435H387.088V221.703H401.997ZM401.997 243.991C403.185 244.028 404.367 243.817 405.468 243.371C406.569 242.924 407.565 242.253 408.392 241.399C410.027 239.594 410.933 237.245 410.933 234.808C410.933 232.372 410.027 230.023 408.392 228.218C407.563 227.367 406.567 226.698 405.466 226.252C404.365 225.806 403.184 225.592 401.997 225.625H391.261V243.941L401.997 243.991Z" fill="white"/>
<path d="M175.962 0.976573C168.348 0.972064 160.807 2.46794 153.771 5.3787C146.735 8.28946 140.342 12.558 134.956 17.9406C129.57 23.3232 125.298 29.7142 122.383 36.7485C119.468 43.7829 117.968 51.3227 117.968 58.937C117.963 66.5543 119.46 74.0977 122.373 81.1359C125.286 88.1742 129.558 94.5693 134.944 99.9555C140.33 105.342 146.725 109.613 153.763 112.526C160.802 115.439 168.345 116.936 175.962 116.932H188.179L266.283 0.976573H175.962Z" fill="white"/>
<path d="M253.483 173.006C268.853 172.997 283.59 166.887 294.458 156.02C305.325 145.152 311.435 130.415 311.444 115.045C311.444 99.6643 305.334 84.9131 294.458 74.037C283.581 63.1609 268.83 57.0508 253.449 57.0508H241.232L163.094 173.006H253.483Z" fill="white"/>
</svg>
