<svg width="309" height="34" viewBox="0 0 309 34" fill="none" xmlns="http://www.w3.org/2000/svg">
<path d="M12.2114 33.2041C9.47484 33.2955 6.77173 32.5802 4.43824 31.1472C2.37632 29.8191 0.814857 27.8423 0 25.5284L5.24065 22.4555C5.73305 23.9305 6.70329 25.199 7.99774 26.06C9.29219 26.921 10.8368 27.3254 12.3869 27.209C13.7072 27.3046 15.0238 26.9797 16.1481 26.2809C16.5436 25.9929 16.8607 25.6107 17.0708 25.1688C17.2809 24.727 17.3773 24.2396 17.3511 23.7511C17.3249 23.2625 17.1771 22.7883 16.9211 22.3714C16.665 21.9546 16.3088 21.6084 15.8849 21.3644C14.2234 20.4999 12.4638 19.8387 10.6443 19.3953C9.4429 19.0447 8.26246 18.6259 7.10871 18.141C6.0919 17.6873 5.12539 17.1282 4.22509 16.473C3.27915 15.7935 2.52364 14.8822 2.03105 13.8266C1.50242 12.6443 1.2454 11.3586 1.27884 10.0639C1.22708 8.7864 1.4705 7.51415 1.99019 6.34604C2.50987 5.17794 3.29181 4.14545 4.27525 3.32883C6.29672 1.64945 8.85732 0.758467 11.4842 0.820408C13.8278 0.771538 16.1341 1.41266 18.1165 2.6641C20.0565 3.92055 21.6034 5.69837 22.5798 7.79381L17.4395 10.7663C16.9733 9.5723 16.1525 8.5499 15.0878 7.8368C14.023 7.12369 12.7654 6.75415 11.4842 6.77791C10.4161 6.71691 9.35911 7.02218 8.48783 7.64331C8.14017 7.90334 7.85975 8.24279 7.67 8.63335C7.48024 9.0239 7.38667 9.45424 7.39708 9.88836C7.3931 10.3565 7.50562 10.8183 7.72448 11.2321C7.94335 11.6459 8.26169 11.9987 8.65082 12.2588C10.1036 13.146 11.6794 13.8138 13.3272 14.2405L15.4837 14.9177C15.9726 15.0933 16.6371 15.3442 17.4771 15.6828C18.159 15.9348 18.8142 16.2541 19.4329 16.636C19.9896 17.0146 20.5176 17.4338 21.0126 17.8902C21.543 18.3341 22 18.859 22.3667 19.4454C22.7086 20.0557 22.978 20.704 23.1691 21.3769C23.3937 22.1939 23.5034 23.0381 23.4951 23.8853C23.5467 25.1897 23.291 26.488 22.7487 27.6753C22.2064 28.8627 21.3927 29.9059 20.3732 30.7208C18.0264 32.4775 15.1386 33.3562 12.2114 33.2041Z" fill="#F4F4F4"/>
<path d="M46.9771 32.5918L45.1091 26.9855H32.7222L30.8541 32.5918H24.2344L35.1168 1.5H42.7144L53.6345 32.5918H46.9771ZM34.678 21.3039H43.1909L38.9407 8.59883L34.678 21.3039Z" fill="#F4F4F4"/>
<path d="M87.0593 1.5V32.5918H80.9787V12.4242L72.2025 26.8601H71.5004L62.7243 12.4618V32.5918H56.5935V1.5H62.8622L71.7888 16.1993L80.6652 1.5H87.0593Z" fill="#F4F4F4"/>
<path d="M104.386 33.2064C101.277 33.3305 98.2348 32.2832 95.8606 30.2716C94.7559 29.2934 93.8833 28.081 93.3064 26.7228C92.7295 25.3645 92.4627 23.8946 92.5256 22.4202V1.5H98.6062V21.9311C98.571 22.6361 98.677 23.3411 98.9181 24.0045C99.1593 24.6679 99.5307 25.2764 100.01 25.794C101.289 26.7128 102.824 27.207 104.399 27.207C105.973 27.207 107.508 26.7128 108.787 25.794C109.264 25.2753 109.633 24.6664 109.872 24.0031C110.111 23.3397 110.215 22.6352 110.178 21.9311V1.5H116.309V22.4202C116.372 23.8946 116.105 25.3645 115.528 26.7228C114.951 28.081 114.079 29.2934 112.974 30.2716C110.578 32.2884 107.515 33.3353 104.386 33.2064Z" fill="#F4F4F4"/>
<path d="M138.876 32.5919L132.608 21.7932H127.956V32.5919H121.825V1.50007H134.25C135.606 1.49512 136.95 1.75763 138.204 2.27258C139.459 2.78753 140.6 3.54483 141.562 4.50117C142.523 5.45751 143.287 6.59412 143.81 7.84602C144.332 9.09793 144.603 10.4405 144.606 11.7971C144.61 13.707 144.038 15.5736 142.963 17.1526C141.894 18.7939 140.381 20.0984 138.6 20.9152L145.483 32.6421L138.876 32.5919ZM127.956 7.23178V16.4252H134.225C134.791 16.4295 135.351 16.3106 135.866 16.0767C136.381 15.8428 136.839 15.4994 137.209 15.0706C138.035 14.1832 138.485 13.0096 138.463 11.7971C138.485 10.5957 138.035 9.43349 137.209 8.56128C136.836 8.1383 136.377 7.80058 135.862 7.57117C135.347 7.34176 134.789 7.226 134.225 7.23178H127.956Z" fill="#F4F4F4"/>
<path d="M190.555 17.7901V19.3955C190.589 21.2195 190.238 23.0301 189.525 24.7092C188.812 26.3884 187.753 27.8983 186.418 29.1407C184.93 30.5001 183.188 31.5514 181.293 32.2338C179.397 32.9161 177.385 33.2162 175.372 33.1165C173.262 33.1165 171.172 32.7006 169.222 31.8926C167.272 31.0846 165.5 29.9002 164.007 28.4071C162.515 26.9141 161.331 25.1415 160.523 23.1907C159.715 21.2399 159.3 19.1491 159.3 17.0376C159.3 14.926 159.715 12.8352 160.523 10.8844C161.331 8.9336 162.515 7.1611 164.007 5.66803C165.5 4.17496 167.272 2.99059 169.222 2.18255C171.172 1.3745 173.262 0.958576 175.372 0.958576C178.146 0.934779 180.874 1.65829 183.271 3.05312C185.589 4.36476 187.509 6.2806 188.825 8.59675L186.067 10.2021C185.086 8.30288 183.575 6.72979 181.716 5.67442C179.794 4.54653 177.601 3.96136 175.372 3.98123C173.323 4.06009 171.32 4.6207 169.527 5.61769C167.735 6.61468 166.201 8.02004 165.052 9.71994C163.903 11.4198 163.171 13.3666 162.914 15.4024C162.657 17.4383 162.882 19.5061 163.573 21.4385C164.263 23.3709 165.398 25.1134 166.887 26.5252C168.376 27.9369 170.176 28.9781 172.142 29.5645C174.107 30.1508 176.184 30.2659 178.202 29.9003C180.221 29.5347 182.125 28.6987 183.76 27.46C184.774 26.6299 185.614 25.6076 186.231 24.4517C186.849 23.2959 187.232 22.0294 187.358 20.7249H175.009V17.7901H190.555Z" fill="#F4F4F4"/>
<path d="M214.966 32.5919L207.694 20.1501H198.98V32.5919H195.909V1.50004H208.333C210.068 1.49473 211.77 1.97496 213.247 2.8865C214.724 3.79803 215.916 5.10452 216.689 6.65835C217.463 8.21218 217.786 9.9514 217.623 11.6795C217.461 13.4076 216.818 15.0558 215.768 16.4377C214.571 18.0413 212.879 19.2051 210.954 19.7488L218.476 32.5919H214.966ZM198.98 4.42234V17.2153H208.308C209.132 17.2263 209.95 17.0646 210.708 16.7406C211.465 16.4165 212.147 15.9374 212.709 15.334C213.874 14.1175 214.525 12.4976 214.525 10.8125C214.525 9.12751 213.874 7.50761 212.709 6.2911C212.145 5.69177 211.462 5.21623 210.705 4.89454C209.947 4.57285 209.131 4.41204 208.308 4.42234H198.98Z" fill="#F4F4F4"/>
<path d="M248.666 28.4246C246.029 31.1037 242.543 32.7836 238.805 33.1774C235.067 33.5711 231.309 32.6542 228.171 30.5833C225.034 28.5124 222.713 25.416 221.605 21.8231C220.496 18.2302 220.669 14.3638 222.094 10.8844C223.519 7.40494 226.108 4.52849 229.417 2.74634C232.727 0.9642 236.553 0.386981 240.241 1.11332C243.928 1.83966 247.25 3.82447 249.637 6.72867C252.025 9.63287 253.33 13.2762 253.33 17.0363C253.375 19.153 252.984 21.2563 252.181 23.2154C251.379 25.1746 250.182 26.9477 248.666 28.4246ZM228.017 26.2924C230.475 28.7257 233.793 30.0906 237.251 30.0906C240.709 30.0906 244.027 28.7257 246.485 26.2924C248.881 23.8073 250.22 20.4892 250.22 17.0363C250.22 13.5835 248.881 10.2653 246.485 7.78025C244.027 5.34694 240.709 3.98203 237.251 3.98203C233.793 3.98203 230.475 5.34694 228.017 7.78025C225.627 10.2683 224.291 13.5854 224.291 17.0363C224.291 20.4873 225.627 23.8043 228.017 26.2924Z" fill="#F4F4F4"/>
<path d="M277.878 30.096C275.537 32.0498 272.584 33.12 269.535 33.12C266.485 33.12 263.533 32.0498 261.191 30.096C260.117 29.053 259.276 27.7935 258.725 26.401C258.174 25.0086 257.925 23.5149 257.994 22.0189V1.5H261.103V22.0189C261.048 23.1032 261.216 24.1874 261.598 25.2038C261.98 26.2201 262.567 27.1469 263.322 27.9262C265.092 29.3229 267.281 30.0825 269.535 30.0825C271.789 30.0825 273.977 29.3229 275.747 27.9262C276.503 27.1469 277.09 26.2201 277.472 25.2038C277.853 24.1874 278.022 23.1032 277.966 22.0189V1.5H281.075V22.0189C281.145 23.5149 280.896 25.0086 280.344 26.401C279.793 27.7935 278.953 29.053 277.878 30.096Z" fill="#F4F4F4"/>
<path d="M298.841 1.5C300.123 1.5 301.393 1.75269 302.578 2.24369C303.763 2.7347 304.84 3.45437 305.747 4.36163C306.653 5.26888 307.373 6.34598 307.864 7.53137C308.355 8.71676 308.607 9.98722 308.607 11.2703C308.607 12.5533 308.355 13.8238 307.864 15.0092C307.373 16.1946 306.653 17.2717 305.747 18.1789C304.84 19.0862 303.763 19.8058 302.578 20.2968C301.393 20.7878 300.123 21.0406 298.841 21.0406H290.842V32.5918H287.732V1.5H298.841ZM298.841 18.1057C299.725 18.1334 300.606 17.9759 301.427 17.6433C302.247 17.3107 302.989 16.8103 303.605 16.1742C304.823 14.8293 305.498 13.0791 305.498 11.264C305.498 9.44895 304.823 7.69873 303.605 6.35379C302.987 5.7202 302.245 5.22149 301.425 4.88906C300.605 4.55664 299.725 4.39771 298.841 4.42229H290.842V18.0681L298.841 18.1057Z" fill="#F4F4F4"/>
</svg>
