<svg xmlns="http://www.w3.org/2000/svg" width="50" height="50" viewBox="0 0 50 50" fill="none">
  <path d="M12.7083 23.838L12.2838 21.3541C11.747 21.1937 11.2428 20.988 10.7713 20.7369C10.2998 20.4859 9.85307 20.168 9.43119 19.7833L7.03119 20.6411L5.42859 17.9807L7.40411 16.2979C7.25446 15.7399 7.17963 15.1684 7.17963 14.5833C7.17963 13.9982 7.25446 13.4267 7.40411 12.8687L5.42859 11.1859L7.03119 8.52549L9.43119 9.3833C9.85307 8.99858 10.2998 8.6807 10.7713 8.42965C11.2428 8.17861 11.747 7.97288 12.2838 7.81247L12.7083 5.32861H15.8333L16.2578 7.81247C16.7946 7.97288 17.2987 8.17861 17.7703 8.42965C18.2418 8.6807 18.6885 8.99858 19.1104 9.3833L21.5104 8.52549L23.113 11.1859L21.1374 12.8687C21.2871 13.4267 21.3619 13.9982 21.3619 14.5833C21.3619 15.1684 21.2871 15.7399 21.1374 16.2979L23.113 17.9807L21.5104 20.6411L19.1104 19.7833C18.6885 20.168 18.2418 20.4859 17.7703 20.7369C17.2987 20.988 16.7946 21.1937 16.2578 21.3541L15.8333 23.838H12.7083ZM14.2708 18.9104C15.4701 18.9104 16.4911 18.489 17.3338 17.6463C18.1765 16.8036 18.5979 15.7826 18.5979 14.5833C18.5979 13.384 18.1765 12.363 17.3338 11.5203C16.4911 10.6776 15.4701 10.2562 14.2708 10.2562C13.0715 10.2562 12.0505 10.6776 11.2078 11.5203C10.365 12.363 9.94369 13.384 9.94369 14.5833C9.94369 15.7826 10.365 16.8036 11.2078 17.6463C12.0505 18.489 13.0715 18.9104 14.2708 18.9104ZM31.6749 45.8531L31.0177 42.5599C30.2538 42.405 29.5433 42.1366 28.8864 41.7547C28.2291 41.3727 27.6374 40.8974 27.1114 40.3286L24.0067 41.4021L21.9114 37.8442L24.4432 35.689C24.2133 34.9172 24.0984 34.1319 24.0984 33.3333C24.0984 32.5347 24.2133 31.7494 24.4432 30.9776L21.9114 28.8224L24.0067 25.2645L27.1114 26.338C27.6374 25.7692 28.2291 25.2939 28.8864 24.9119C29.5433 24.53 30.2538 24.2616 31.0177 24.1067L31.6749 20.8135H35.8249L36.4822 24.1067C37.2461 24.2616 37.9565 24.53 38.6135 24.9119C39.2708 25.2939 39.8624 25.7692 40.3885 26.338L43.4932 25.2645L45.5885 28.8224L43.0567 30.9776C43.2866 31.7494 43.4015 32.5347 43.4015 33.3333C43.4015 34.1319 43.2866 34.9172 43.0567 35.689L45.5885 37.8442L43.4932 41.4021L40.3885 40.3286C39.8624 40.8974 39.2708 41.3727 38.6135 41.7547C37.9565 42.1366 37.2461 42.405 36.4822 42.5599L35.8249 45.8531H31.6749ZM33.7499 39.5833C35.4861 39.5833 36.9618 38.9757 38.177 37.7604C39.3923 36.5451 39.9999 35.0694 39.9999 33.3333C39.9999 31.5972 39.3923 30.1215 38.177 28.9062C36.9618 27.6909 35.4861 27.0833 33.7499 27.0833C32.0138 27.0833 30.5381 27.6909 29.3229 28.9062C28.1076 30.1215 27.4999 31.5972 27.4999 33.3333C27.4999 35.0694 28.1076 36.5451 29.3229 37.7604C30.5381 38.9757 32.0138 39.5833 33.7499 39.5833Z" fill="white"/>
</svg>