<svg width="382" height="150" viewBox="0 0 382 150" fill="none" xmlns="http://www.w3.org/2000/svg">
<path fill-rule="evenodd" clip-rule="evenodd" d="M213.515 0.969462C196.222 2.91975 184.561 17.4873 184.561 37.1381C184.561 45.6948 186.698 53.1597 191.003 59.6395C192.602 62.0467 196.553 65.9543 199.064 67.6124C206.685 72.6447 216.661 74.2625 226.049 71.9892C239.027 68.8469 247.745 58.4508 249.808 43.6574C250.282 40.2613 250.287 34.3501 249.819 30.784C247.993 16.8504 240.085 6.45675 228.227 2.4054C224.381 1.09129 217.976 0.466209 213.515 0.969462ZM0.163263 1.83483C-0.107905 2.10576 -0.0176766 45.1771 0.260729 48.3491C0.948058 56.1859 3.68628 62.3297 8.61 67.0824C13.402 71.7081 19.6533 74.064 27.1433 74.0669C35.1857 74.07 41.7907 71.5356 46.9359 66.4725C50.8842 62.5869 53.0572 58.5765 54.5949 52.337C55.0878 50.3365 55.1023 49.6904 55.1846 25.9801L55.2688 1.67392H53.2082H51.1479L51.146 23.8089C51.1448 37.1166 51.0466 46.8096 50.9002 48.1151C50.1752 54.5691 47.8828 59.564 43.8136 63.5552C39.2095 68.0715 33.2388 70.0944 26.3939 69.4568C14.912 68.3871 8.00011 61.3434 6.52365 49.207C6.36901 47.9365 6.27492 38.5535 6.27492 24.4183V1.67392H3.29955C1.66289 1.67392 0.251562 1.74629 0.163263 1.83483ZM68.0356 36.7605V71.8785H71.1719H74.3082V57.6445V43.4106H83.6058C88.7196 43.4106 93.9445 43.2946 95.2166 43.1527C106.345 41.912 114.412 34.3888 115.285 24.4392C115.628 20.5187 115.046 17.2757 113.384 13.8572C110.532 7.98991 105.159 3.8879 98.1922 2.25872C96.6043 1.88719 94.647 1.82374 82.2092 1.73906L68.0356 1.6428V36.7605ZM126.295 1.9586C126.229 2.13375 126.202 17.9102 126.236 37.0174L126.298 71.7578L129.374 71.8254L132.45 71.8929V57.6486V43.4046L141.063 43.4678L149.675 43.5313L160.142 57.7049L170.61 71.8785H174.328C176.373 71.8785 178.047 71.8239 178.047 71.7573C178.047 71.6905 173.368 65.2139 167.651 57.3642C161.933 49.5148 157.198 42.9469 157.13 42.7689C157.058 42.5814 157.169 42.4456 157.393 42.4456C157.999 42.4456 160.652 41.4857 162.245 40.6903C169.883 36.8744 174.386 29.3743 173.865 21.336C173.259 11.9906 166.604 4.59187 156.685 2.2358C155.252 1.89539 152.925 1.82301 140.712 1.73882C129.023 1.658 126.395 1.69804 126.295 1.9586ZM212.908 5.75664C202.78 7.8606 195.79 14.2654 192.552 24.4098C191.451 27.8588 191.038 30.5012 190.898 34.9892C190.291 54.4964 200.223 67.6932 216.066 68.4319C228.361 69.0049 238.039 62.2052 242.066 50.1657C244.167 43.8828 244.598 35.3972 243.171 28.3787C240.861 17.0147 233.793 8.54962 224.488 6.00368C221.72 5.24639 215.956 5.12335 212.908 5.75664ZM74.3082 22.5789V38.9004L84.2598 38.7262C94.7942 38.5419 96.1662 38.4071 98.9553 37.2804C105.396 34.6787 109.049 29.3022 109.049 22.4216C109.049 17.7749 107.583 14.1969 104.347 10.9419C102.826 9.41162 101.967 8.77423 100.361 7.9822C97.0354 6.34312 96.3365 6.26665 84.6217 6.26182L74.3082 6.25772V22.5789ZM132.45 22.5775V38.8975L143.005 38.7262C150.232 38.6087 154.054 38.4534 155.128 38.2329C160.777 37.0736 165.363 32.6766 166.973 26.8764C167.642 24.4694 167.7 20.655 167.105 18.3204C165.954 13.8053 162.892 9.90836 158.98 7.97978C155.651 6.33854 154.982 6.26665 143.005 6.26182L132.45 6.25772V22.5775ZM82.9933 77.5713C74.3511 78.5928 67.6332 81.7648 62.4603 87.266C58.2868 91.7044 55.5254 97.3135 54.0022 104.448C53.5281 106.667 53.4606 107.698 53.4565 112.771C53.4521 117.871 53.5156 118.852 53.9882 121.009C56.5985 132.922 63.971 142.331 74.1391 146.726C83.8905 150.941 96.7454 149.58 106.264 143.323C108.465 141.876 112.022 138.327 113.463 136.14L114.597 134.419V122.69V110.961H100.605H86.6121V113.133V115.304H97.4684H108.325L108.31 125.738L108.295 136.172L106.613 137.62C99.2896 143.922 90.0591 146.13 80.8584 143.781C70.8983 141.238 63.0873 132.704 60.4333 121.465C58.835 114.698 59.2764 105.946 61.5437 99.4565C65.239 88.8781 73.8585 82.7913 86.1375 82.0888C93.6134 81.661 101.359 84.9874 106.05 90.64C107.878 92.8421 109.687 96.5784 110.18 99.1685C110.391 100.281 110.6 101.326 110.643 101.492C110.698 101.702 111.313 101.794 112.66 101.794H114.597L114.592 100.648C114.589 100.017 114.379 98.56 114.124 97.4088C112.035 87.9596 103.865 80.4984 93.0053 78.1211C90.9013 77.6608 84.986 77.3358 82.9933 77.5713ZM211.871 77.6929C202.514 78.9599 194.876 83.6979 189.73 91.4291C186.523 96.2452 184.597 101.778 183.814 108.416C183.404 111.895 183.653 118.865 184.304 122.131C186.487 133.077 192.432 141.328 201.338 145.776C204.006 147.108 207.343 148.183 210.429 148.704C213.131 149.16 218.743 149.231 221.45 148.844C236.501 146.689 246.542 135.549 248.516 118.814C248.87 115.812 248.669 108.421 248.159 105.689C246.435 96.4534 242.395 89.135 236.351 84.2974C232.346 81.0912 228.476 79.2661 223.282 78.1329C220.707 77.5711 214.529 77.3329 211.871 77.6929ZM125.695 113.261V148.129L128.771 148.061L131.847 147.994L131.909 133.82L131.971 119.646L140.353 119.653L148.735 119.66L159.225 133.887L169.715 148.114H173.399C175.424 148.114 177.082 148.055 177.082 147.984C177.082 147.912 172.366 141.374 166.601 133.456L156.121 119.06L158.137 118.402C166.039 115.827 171.356 109.911 172.727 102.172C173.784 96.2025 171.65 89.6301 167.192 85.1283C164.548 82.4591 162.134 80.9585 158.452 79.6963C155.008 78.516 153.194 78.3952 138.904 78.3937L125.695 78.3923V113.261ZM215.079 81.9245C202.233 83.1394 193.262 91.349 190.59 104.335C188.834 112.871 189.919 123.109 193.342 130.312C197.616 139.304 206.13 144.732 215.966 144.736C227.777 144.74 236.731 138.127 240.63 126.52C242.18 121.904 242.889 115.615 242.463 110.25C241.489 97.9711 235.951 88.5461 227.148 84.1852C223.858 82.5556 218.674 81.5845 215.079 81.9245ZM131.968 99.1357V115.295L142.281 115.154C153.893 114.995 154.888 114.882 157.914 113.391C165.667 109.569 168.855 99.9038 165.048 91.7668C163.118 87.6431 159.404 84.5831 154.945 83.4429C153.277 83.0161 152.212 82.9761 142.544 82.9761H131.968V99.1357Z" fill="#EBEBEB"/>
<mask id="mask0_41_1185" style="mask-type:alpha" maskUnits="userSpaceOnUse" x="254" y="78" width="128" height="72">
<path fill-rule="evenodd" clip-rule="evenodd" d="M254.284 100.728C254.285 124.405 254.308 124.891 255.605 129.347C258.529 139.392 267.21 146.57 279.011 148.698C282.003 149.238 289.658 149.318 292.4 148.838C296.83 148.063 300.787 146.699 303.86 144.888C311.113 140.614 315.204 135.046 317.041 126.951C317.581 124.568 317.586 124.396 317.669 101.693L317.752 78.8345H307.007H296.26L296.257 100.004C296.253 123.254 296.269 122.972 294.799 125.542C293.418 127.956 291.222 129.301 287.864 129.79C282.005 130.644 277.172 127.751 276.005 122.692C275.857 122.052 275.764 113.494 275.76 100.246L275.754 78.8345H265.018H254.282L254.284 100.728ZM324.184 79.4591C324.085 79.5577 324.005 95.0908 324.005 113.977V148.315H334.74H345.476V136.401V124.486L352.895 124.37C361.045 124.241 362.984 124.01 366.827 122.71C374.496 120.114 380.056 114.124 381.691 106.699C382.103 104.827 382.103 99.1612 381.691 97.2903C380.729 92.926 378.793 89.4735 375.596 86.4183C372.925 83.8663 370.203 82.2453 366.516 81.0099C362.08 79.5237 361.561 79.4892 342.097 79.3795C332.344 79.3245 324.283 79.3604 324.184 79.4591ZM345.476 102.839V109.048L350.241 108.931C353.845 108.842 355.273 108.716 356.105 108.413C360.365 106.861 361.596 101.495 358.347 98.636C356.599 97.0973 355.671 96.8811 350.241 96.7477L345.476 96.6307V102.839Z" fill="black"/>
</mask>
<g mask="url(#mask0_41_1185)">
<path d="M249.291 74.3931L314.061 149.609L350.825 152.075L374.389 129.253L330.84 78.5478L249.291 74.3931Z" fill="#F13D55"/>
<path d="M319.119 154.03L270.388 98.1597L264.924 110.586L241.396 150.594L319.119 154.03Z" fill="#E65E41"/>
<path d="M277.079 105.872L253.83 78.3047L248.516 89.8617L252.7 133.305L277.079 105.872Z" fill="#C02233"/>
<path d="M325.682 73.0945L351.19 103.319L378.167 100.235L426.265 52.2692H357.525L337.563 75.8543L325.682 73.0945Z" fill="#E6A24B"/>
<path d="M353.539 105.318L399.804 158.72L405.268 146.293L379.723 77.0889L359.761 100.674L353.539 105.318Z" fill="#CE2425"/>
</g>
</svg>
