<svg xmlns="http://www.w3.org/2000/svg" width="33" height="33" viewBox="0 0 33 33" fill="none">
  <path d="M28.4806 30L23.8247 25.3501V29.1002H21.6422V21.6167H29.1354V23.7964H25.3441L30 28.4463L28.4806 30ZM15.8223 29.6088C13.9102 29.6088 12.1133 29.2465 10.4316 28.5218C8.74989 27.7972 7.28703 26.8139 6.04303 25.5717C4.79902 24.3295 3.81424 22.8688 3.08869 21.1895C2.3629 19.5102 2 17.716 2 15.8069C2 13.8976 2.36277 12.1029 3.08832 10.4228C3.81387 8.74283 4.79853 7.28151 6.0423 6.03887C7.28606 4.79623 8.74868 3.81237 10.4302 3.08728C12.1116 2.36243 13.9082 2 15.8198 2C17.7316 2 19.5286 2.36243 21.2108 3.08728C22.893 3.81188 24.3563 4.79539 25.6005 6.03778C26.8448 7.28018 27.8299 8.74114 28.5559 10.4207C29.2817 12.1002 29.6446 13.8948 29.6446 15.8044C29.6446 16.2422 29.6239 16.68 29.5824 17.1176C29.541 17.5555 29.4786 17.9933 29.3955 18.4312H27.1544C27.257 17.9933 27.3339 17.5555 27.385 17.1176C27.4364 16.68 27.4621 16.2422 27.4621 15.8044C27.4621 15.2764 27.4272 14.7486 27.3574 14.2209C27.2873 13.6929 27.1777 13.1682 27.0286 12.6468H21.6197C21.7111 13.1682 21.7774 13.6929 21.8186 14.2209C21.8596 14.7486 21.8801 15.2764 21.8801 15.8044C21.8801 16.2422 21.8654 16.68 21.8361 17.1176C21.8065 17.5555 21.7624 17.9933 21.7037 18.4312H19.5212C19.5802 17.9933 19.6243 17.5555 19.6536 17.1176C19.683 16.68 19.6976 16.2422 19.6976 15.8044C19.6976 15.2764 19.6772 14.7486 19.6362 14.2209C19.5949 13.6929 19.5288 13.1682 19.4376 12.6468H12.207C12.1159 13.1682 12.0497 13.6933 12.0084 14.222C11.9675 14.7506 11.947 15.2793 11.947 15.808C11.947 16.3365 11.9675 16.8638 12.0084 17.3901C12.0497 17.9166 12.1159 18.4405 12.207 18.9619H17.557V21.1416H12.7079C13.0304 22.2847 13.4468 23.3814 13.957 24.4317C14.4675 25.4819 15.0892 26.4707 15.8223 27.3982C16.2607 27.3982 16.6991 27.3727 17.1372 27.3216C17.5757 27.2702 18.0141 27.2204 18.4525 27.1719V29.3824C18.0141 29.4309 17.5757 29.4806 17.1372 29.5317C16.6991 29.5831 16.2607 29.6088 15.8223 29.6088ZM4.61605 18.9619H10.0249C9.93352 18.4405 9.8672 17.9155 9.82597 17.3868C9.78499 16.8581 9.7645 16.3294 9.7645 15.8007C9.7645 15.2723 9.78499 14.745 9.82597 14.2187C9.8672 13.6922 9.93352 13.1682 10.0249 12.6468H4.61605C4.46692 13.1682 4.35731 13.6933 4.28723 14.222C4.21739 14.7506 4.18247 15.2793 4.18247 15.808C4.18247 16.3365 4.21739 16.8638 4.28723 17.3901C4.35731 17.9166 4.46692 18.4405 4.61605 18.9619ZM5.53124 10.4672H10.4603C10.7108 9.41271 11.0442 8.39276 11.4603 7.40732C11.8762 6.42164 12.391 5.47991 13.0047 4.58215C11.3725 4.94348 9.90866 5.6383 8.61325 6.66661C7.31759 7.69491 6.29025 8.96177 5.53124 10.4672ZM13.0047 27.0266C12.4191 26.1194 11.9159 25.1731 11.4952 24.1876C11.0745 23.2022 10.7317 22.1868 10.4669 21.1416H5.53124C6.29025 22.6375 7.31989 23.8997 8.62016 24.928C9.92043 25.9565 11.382 26.6561 13.0047 27.0266ZM12.7079 10.4672H18.9367C18.627 9.32334 18.2099 8.23146 17.6854 7.19153C17.1609 6.15185 16.5399 5.15817 15.8223 4.21052C15.0985 5.13807 14.4758 6.12678 13.9545 7.17664C13.4331 8.2265 13.0176 9.32334 12.7079 10.4672ZM21.1777 10.4672H26.1134C25.3544 8.96177 24.327 7.69261 23.0314 6.6597C21.736 5.62656 20.2721 4.93404 18.6399 4.58215C19.2255 5.48936 19.7217 6.43799 20.1283 7.42803C20.535 8.41831 20.8848 9.43136 21.1777 10.4672Z" fill="#1F1F1F"/>
</svg>